<svg xmlns="http://www.w3.org/2000/svg" version="1.1" viewBox="0 0 100 100">
 <path d="m25.398 60.898h5.8008c2.1992 0 3.8984-1.8008 3.8984-3.8984v-5.8008c0-2.1992-1.8008-3.8984-3.8984-3.8984h-5.8008c-2.1992 0-3.8984 1.8008-3.8984 3.8984v5.8008c0 2.1016 1.6992 3.8984 3.8984 3.8984z"/>
 <path d="m47 60.898h5.8008c2.1992 0 3.8984-1.8008 3.8984-3.8984v-5.8008c0-2.1992-1.8008-3.8984-3.8984-3.8984h-5.8008c-2.1992 0-3.8984 1.8008-3.8984 3.8984v5.8008c0 2.1016 1.6992 3.8984 3.8984 3.8984z"/>
 <path d="m47 81.699h5.8008c2.1992 0 3.8984-1.8008 3.8984-3.8984v-5.8008c0-2.1992-1.8008-3.8984-3.8984-3.8984h-5.8008c-2.1992 0-3.8984 1.8008-3.8984 3.8984v5.8008c0 2.0977 1.6992 3.8984 3.8984 3.8984z"/>
 <path d="m25.398 81.699h5.8008c2.1992 0 3.8984-1.8008 3.8984-3.8984v-5.8008c0-2.1992-1.8008-3.8984-3.8984-3.8984h-5.8008c-2.1992 0-3.8984 1.8008-3.8984 3.8984v5.8008c0 2.0977 1.6992 3.8984 3.8984 3.8984z"/>
 <path d="m68.602 60.898h5.8008c2.1992 0 3.8984-1.8008 3.8984-3.8984v-5.8008c0-2.1992-1.8008-3.8984-3.8984-3.8984h-5.8008c-2.1992 0-3.8984 1.8008-3.8984 3.8984v5.8008c-0.003906 2.1016 1.6953 3.8984 3.8984 3.8984z"/>
 <path d="m68.602 81.699h5.8008c2.1992 0 3.8984-1.8008 3.8984-3.8984v-5.8008c0-2.1992-1.8008-3.8984-3.8984-3.8984h-5.8008c-2.1992 0-3.8984 1.8008-3.8984 3.8984v5.8008c-0.003906 2.0977 1.6953 3.8984 3.8984 3.8984z"/>
 <path d="m28.301 20.898c2.1992 0 4-1.8008 4-4v-10.398c0-2.1992-1.8008-4-4-4s-4 1.8008-4 4v10.5c0.097657 2.1016 1.8008 3.8984 4 3.8984z"/>
 <path d="m71.5 20.898c2.1992 0 4-1.8008 4-4v-10.398c0-2.1992-1.8008-4-4-4s-4 1.8008-4 4v10.5c0.10156 2.1016 1.8008 3.8984 4 3.8984z"/>
 <path d="m83.898 12.602h-3.5v4.3984c0 4.8984-4 8.8008-8.8008 8.8008-4.8008 0-8.8008-4-8.8008-8.8008v-4.3008h-25.598v4.3008c0 4.8984-4 8.8008-8.8008 8.8008-4.8984 0-8.8008-4-8.8008-8.8008v-4.3008h-3.3984c-6.6016 0-12 5.3984-12 12v60.898c0 6.6016 5.3984 12 12 12h67.801c6.6016 0 12-5.3984 12-12v-60.996c-0.10156-6.6016-5.5-12-12.102-12zm4.2031 72.898c0 2.3008-1.8984 4.1992-4.1992 4.1992h-67.801c-2.3008 0-4.1992-1.8984-4.1992-4.1992l-0.003906-46.398h76.301v46.398z"/>
</svg>