<svg xmlns:dc="http://purl.org/dc/elements/1.1/" xmlns:cc="http://creativecommons.org/ns#" xmlns:rdf="http://www.w3.org/1999/02/22-rdf-syntax-ns#" xmlns:svg="http://www.w3.org/2000/svg" xmlns="http://www.w3.org/2000/svg" xmlns:sodipodi="http://sodipodi.sourceforge.net/DTD/sodipodi-0.dtd" xmlns:inkscape="http://www.inkscape.org/namespaces/inkscape" version="1.1" x="0px" y="0px" viewBox="1.40 1.40 97.20 97.20"><g transform="translate(0,-952.36218)"><path style="font-size:medium;font-style:normal;font-variant:normal;font-weight:normal;font-stretch:normal;text-indent:0;text-align:start;text-decoration:none;line-height:normal;letter-spacing:normal;word-spacing:normal;text-transform:none;direction:ltr;block-progression:tb;writing-mode:lr-tb;text-anchor:start;baseline-shift:baseline;opacity:1;color:#000000;fill:#000000;fill-opacity:1;stroke:none;stroke-width:6;marker:none;visibility:visible;display:inline;overflow:visible;enable-background:accumulate;font-family:Sans;-inkscape-font-specification:Sans" d="M 50 5 C 25.182718 5 5 25.1827 5 50 C 5 74.8172 25.182714 95 50 95 C 74.817295 95 95 74.8172 95 50 C 95 25.1827 74.81729 5 50 5 z M 47 11.125 L 47 15 A 3.0003 3.0003 0 1 0 53 15 L 53 11.125 C 72.168401 12.578094 87.413808 27.833892 88.875 47 L 85 47 A 3.0003 3.0003 0 0 0 84.6875 47 A 3.0040663 3.0040663 0 1 0 85 53 L 88.875 53 C 87.428122 72.179986 72.177719 87.420015 53 88.875 L 53 85 A 3.0003 3.0003 0 0 0 49.96875 81.9375 A 3.0003 3.0003 0 0 0 47 85 L 47 88.875 C 27.822287 87.420015 12.571879 72.179986 11.125 53 L 15 53 A 3.0003 3.0003 0 1 0 15 47 L 11.125 47 C 12.586193 27.833892 27.831607 12.578094 47 11.125 z M 33.65625 30.96875 A 3.0003 3.0003 0 0 0 31.875 36.09375 L 45.0625 49.28125 C 45.027559 49.519813 45 49.751738 45 50 C 45 52.7614 47.238575 55 50 55 C 52.761425 55 55 52.7614 55 50 C 55 47.23858 52.761425 45 50 45 C 49.762358 45 49.541304 45.030436 49.3125 45.0625 L 36.125 31.875 A 3.0003 3.0003 0 0 0 33.65625 30.96875 z " transform="translate(0,952.36218)"/></g></svg>