<svg xmlns="http://www.w3.org/2000/svg" viewBox="0 0 100 100">
  <path fill="currentColor" d="M 50 5 C 25.18 5 5 25.18 5 50 C 5 74.82 25.18 95 50 95 C 74.82 95 95 74.82 95 50 C 95 25.18 74.82 5 50 5 z M 47 11.125 L 47 15 A 3 3 0 1 0 53 15 L 53 11.125 C 72.17 12.58 87.41 27.83 88.875 47 L 85 47 A 3 3 0 1 0 85 53 L 88.875 53 C 87.43 72.18 72.18 87.42 53 88.875 L 53 85 A 3 3 0 0 0 47 85 L 47 88.875 C 27.82 87.42 12.57 72.18 11.125 53 L 15 53 A 3 3 0 1 0 15 47 L 11.125 47 C 12.59 27.83 27.83 12.58 47 11.125 z M 33.656 30.969 A 3 3 0 0 0 31.875 36.094 L 45.063 49.281 C 45.028 49.52 45 49.75 45 50 C 45 52.76 47.24 55 50 55 C 52.76 55 55 52.76 55 50 C 55 47.24 52.76 45 50 45 C 49.76 45 49.54 45.03 49.313 45.063 L 36.125 31.875 A 3 3 0 0 0 33.656 30.969 z"/>
</svg>