<svg xmlns="http://www.w3.org/2000/svg" xmlns:xlink="http://www.w3.org/1999/xlink" version="1.1" x="0px" y="0px" viewBox="127.48 -66.17 1485.43 1485.43" style="enable-background:new 0 0 1024 1024;" xml:space="preserve"><g><g><circle cx="512" cy="277.3" r="220.7"/><g><path d="M722.7,277.3c-0.1,43.9-13.8,86.7-39.2,122.5c-24.3,34.3-59.5,61.1-99.1,75.4     c-41.9,15.1-87.9,16.8-130.8,4.5c-40.8-11.7-77.1-35.9-104.2-68.5c-56.6-68.1-63.3-167.9-17.5-243.3     c22.2-36.5,55.3-65.5,94.1-83.1c39.4-17.9,84.9-22.8,127.3-14.2c42.2,8.5,81,29.9,110.8,60.9c29.9,31.2,49.4,71.1,56.2,113.8     C722,255.9,722.6,266.6,722.7,277.3c0,12.9,20,12.9,20,0c-0.1-47.4-14.7-94.5-42.3-133.1C673.1,106,635,76.7,591,60.5     c-45.1-16.6-95.8-18.3-142-5.2c-44.5,12.6-85.1,39-114.6,74.8c-30.3,36.9-48.6,82-52.4,129.6c-3.7,47.6,7.8,96.1,32.6,136.9     c23.9,39.4,59.8,71.6,101.9,90.5c44.3,19.9,93.8,25.6,141.5,16.1c45.6-9.1,88.2-32.7,120.3-66.2c32.3-33.6,54.3-77.1,61.4-123.3     c1.9-12.1,2.9-24.3,2.9-36.6C742.7,264.4,722.7,264.4,722.7,277.3z"/></g></g><g><path d="M841.5,967.4h-659c-26.5,0-48-21.5-48-48V804.7c0-127.6,103.4-231,231-231h293c127.6,0,231,103.4,231,231    v114.7C889.5,945.9,868,967.4,841.5,967.4z"/><g><path d="M841.5,957.4c-8.6,0-17.1,0-25.7,0c-22.7,0-45.5,0-68.2,0c-32.5,0-65,0-97.5,0c-37.9,0-75.7,0-113.6,0     c-38.8,0-77.5,0-116.3,0c-35.3,0-70.6,0-105.8,0c-27.4,0-54.7,0-82.1,0c-15,0-30,0-45.1,0c-5.7,0-11.1-0.1-16.7-1.9     c-10.4-3.3-19.1-11.5-23.2-21.6c-2.4-5.8-2.8-11.7-2.8-17.8c0-32.4,0-64.8,0-97.3c0-14.5,0-28.9,1.8-43.4     c3.2-25.1,11.1-49.7,22.7-72.2c23.5-45.2,62.1-81.3,108.8-101.7c23.6-10.3,49.3-16.2,75-17.6c7.6-0.4,15.3-0.3,22.9-0.3     c28.1,0,56.2,0,84.3,0c38.2,0,76.3,0,114.5,0c25.9,0,51.8,0,77.7,0c37.5,0,74,7.1,107.5,24.5c45.2,23.5,81.3,62.1,101.7,108.8     c10.3,23.6,16.2,49.3,17.6,75c0.6,11.8,0.3,23.6,0.3,35.4c0,30.5,0.3,61,0,91.5C879.3,940.1,862.7,957.1,841.5,957.4     c-12.9,0.2-12.9,20.2,0,20c30.3-0.4,55.2-23.6,57.8-53.9c0.9-11,0.2-22.3,0.2-33.3c0-30.4,0.7-60.8-0.1-91.2     c-1.3-55.1-21.7-108.3-57.2-150.3c-34.7-41.1-83.6-70-136.3-80.4c-25.6-5-51.1-4.7-76.9-4.7c-34.3,0-68.7,0-103,0     c-37.2,0-74.4,0-111.7,0c-19.1,0-38.2-0.5-57.3,0.2c-55,2-107.9,22.9-149.5,58.9c-40.7,35.1-69.1,84.4-78.9,137.3     c-6.3,34.1-4.2,69.5-4.2,104.1c0,16.4,0,32.7,0,49.1c0,4.4-0.1,8.7,0.5,13.1c1.8,14.3,8.7,27.9,19.8,37.2     c11.4,9.4,25,13.9,39.7,13.9c4.7,0,9.3,0,14,0c20.6,0,41.2,0,61.8,0c31.7,0,63.4,0,95.1,0c37.9,0,75.8,0,113.7,0     c39.7,0,79.5,0,119.2,0c36.6,0,73.1,0,109.7,0c29,0,58.1,0,87.1,0c16.6,0,33.2,0,49.8,0c2.2,0,4.4,0,6.5,0     C854.4,977.4,854.4,957.4,841.5,957.4z"/></g></g></g></svg>