<svg xmlns="http://www.w3.org/2000/svg" version="1.1" viewBox="4 4 92 92">
 <path d="m76.988 81.488c0 2.4805-2.0195 4.5-4.5 4.5h-53.988c-2.4805 0-4.5-2.0195-4.5-4.5v-53.988c0-2.4805 2.0195-4.5 4.5-4.5h35.988v-9h-35.988c-7.4414 0-13.5 6.0508-13.5 13.5v53.988c0 7.4414 6.0508 13.5 13.5 13.5h53.988c7.4414 0 13.5-6.0508 13.5-13.5v-35.988h-9z"/>
 <path d="m32.219 53.07-4.5 13.5c-0.53906 1.6211-0.14062 3.4219 1.0781 4.5898 0.85156 0.85156 2.0195 1.3516 3.1914 1.3516 0.48828 0 0.94141-0.089844 1.4414-0.26953l13.5-4.5c0.62891-0.17969 1.2617-0.57813 1.75-1.0781l30.551-30.551-15.328-15.328-30.59 30.551c-0.48828 0.48828-0.85156 1.0781-1.0781 1.75z"/>
 <path d="m93.68 15.328-9-9c-1.75-1.75-4.6289-1.75-6.3906 0l-8.0508 8.0508 6.3398 6.3906 8.9883 8.9883 8.1016-8.1016c1.75-1.75 1.75-4.5898 0-6.3398z"/>
</svg>