<svg xmlns="http://www.w3.org/2000/svg" version="1.1" viewBox="5 5 90 90">
 <path d="m50 28c-18.316 0-34.457 8.2383-43.625 20.812-0.50391 0.69922-0.50391 1.6445 0 2.3438 9.168 12.574 25.309 20.844 43.625 20.844s34.457-8.2695 43.625-20.844c0.50391-0.69922 0.50391-1.6445 0-2.3438-9.168-12.574-25.309-20.812-43.625-20.812zm0 5c9.4141 0 17 7.5859 17 17s-7.5859 17-17 17-17-7.5859-17-17 7.5859-17 17-17zm-13.062 0.59375c-4.8281 3.8516-7.9375 9.7695-7.9375 16.406s3.1094 12.586 7.9375 16.438c-10.922-2.6836-20.188-8.6328-26.344-16.438 6.1523-7.8125 15.422-13.727 26.344-16.406zm26.125 0c10.922 2.6797 20.191 8.5938 26.344 16.406-6.1562 7.8047-15.422 13.754-26.344 16.438 4.8281-3.8516 7.9375-9.8008 7.9375-16.438s-3.1094-12.555-7.9375-16.406zm-13.062 6.4062c-5.5 0-10 4.5-10 10s4.5 10 10 10 10-4.5 10-10-4.5-10-10-10zm0 4c3.3359 0 6 2.6641 6 6s-2.6641 6-6 6-6-2.6641-6-6 2.6641-6 6-6z"/>
</svg>