<svg xmlns="http://www.w3.org/2000/svg" viewBox="1 1 30 30" x="0px" y="0px"><title>office vol.1</title><path d="M24,2H13.83a3,3,0,0,0-1.25.27,3.15,3.15,0,0,0-.88.61L5.88,8.7a3.15,3.15,0,0,0-.61.88A3,3,0,0,0,5,10.83V27a3,3,0,0,0,3,3H24a3,3,0,0,0,3-3V5A3,3,0,0,0,24,2Zm1,25a1,1,0,0,1-1,1H8a1,1,0,0,1-1-1V10.83a.91.91,0,0,1,.09-.41.81.81,0,0,1,.21-.3L12,5.42V8a1,1,0,0,1-1,1H9v2h2a3,3,0,0,0,3-3V4H24a1,1,0,0,1,1,1Z"/><rect x="9" y="13" width="14" height="2"/><rect x="9" y="17" width="14" height="2"/><rect x="9" y="21" width="14" height="2"/></svg>