<?xml version="1.0" standalone="no"?>
<!DOCTYPE svg PUBLIC "-//W3C//DTD SVG 20010904//EN"
 "http://www.w3.org/TR/2001/REC-SVG-20010904/DTD/svg10.dtd">
<svg version="1.0" xmlns="http://www.w3.org/2000/svg"
 width="679.000000pt" height="679.000000pt" viewBox="0 0 679.000000 679.000000"
 preserveAspectRatio="xMidYMid meet">

<g transform="translate(0.000000,679.000000) scale(0.100000,-0.100000)"
fill="#6441d2" stroke="none">
<path d="M3335 5217 c-32 -61 -75 -143 -95 -182 -21 -38 -81 -155 -135 -260
-54 -104 -137 -264 -185 -355 -48 -91 -122 -232 -165 -315 -42 -82 -99 -190
-125 -240 -26 -49 -80 -153 -120 -230 -40 -77 -104 -201 -143 -275 -38 -74
-93 -180 -122 -235 -29 -55 -108 -206 -175 -335 -224 -430 -252 -485 -285
-545 -18 -33 -69 -131 -114 -217 l-81 -157 57 -37 c32 -21 119 -77 194 -125
l137 -87 148 88 c82 48 399 234 704 415 305 180 560 328 565 328 6 0 134 -73
285 -163 151 -89 324 -191 384 -227 59 -35 109 -63 111 -61 1 2 -75 161 -170
353 -128 259 -170 353 -161 361 6 6 41 28 78 48 l67 37 39 -83 c22 -46 81
-166 130 -268 49 -102 132 -273 185 -382 62 -127 102 -198 114 -202 10 -3 59
-16 108 -30 50 -13 236 -65 414 -115 178 -51 327 -91 332 -89 8 3 -93 199
-465 913 -201 385 -416 800 -494 953 -31 61 -61 112 -66 112 -8 0 -184 -89
-481 -245 -93 -49 -161 -84 -530 -275 -144 -75 -319 -167 -390 -205 -22 -12
-48 -24 -58 -28 -22 -8 -25 -16 143 328 73 149 161 329 195 400 186 385 225
465 230 465 5 0 94 -181 227 -460 28 -58 52 -107 54 -109 1 -2 27 10 56 27 54
30 414 217 455 237 13 5 23 14 23 19 0 5 -24 54 -54 110 -69 131 -134 254
-356 681 -360 692 -401 769 -404 772 -1 2 -29 -48 -61 -110z"/>
<path d="M3025 5093 c-33 -20 -393 -244 -800 -498 -407 -254 -750 -467 -762
-474 l-23 -12 0 -1071 c0 -593 4 -1068 9 -1062 4 5 48 86 96 179 97 187 185
357 250 480 23 44 92 177 154 296 l111 216 0 289 0 290 53 30 c182 107 375
227 389 245 10 12 79 141 154 288 75 146 156 302 179 346 95 180 256 495 253
495 -2 0 -30 -17 -63 -37z"/>
<path d="M3778 5018 c47 -87 189 -361 435 -839 l107 -206 152 -93 c84 -51 177
-107 205 -123 l53 -31 2 -331 3 -332 308 189 307 190 0 332 0 332 -804 502
c-442 276 -806 502 -810 502 -4 0 15 -42 42 -92z"/>
</g>
</svg>
