<svg xmlns="http://www.w3.org/2000/svg" version="1.1" viewBox="0 0 100 100">
 <path d="m60 26c3.3125 0 6 2.6875 6 6v24c0 1.6562-1.3438 3-3 3s-3-1.3438-3-3v-21.746c0-0.55469-0.44922-1.0039-1.0039-1.0039-0.55078 0-1 0.44531-1.0039 0.99609l-0.46094 51.52c-0.019531 1.7891-1.4766 3.2344-3.2656 3.2344-1.8047 0-3.2656-1.4609-3.2656-3.2656v-29.105c0-0.625-0.50391-1.1289-1.1289-1.1289-0.62109 0-1.125 0.5-1.1289 1.1211l-0.21484 28.891c-0.015625 1.9297-1.5859 3.4883-3.5156 3.4883-1.9375 0-3.5117-1.5742-3.5117-3.5117v-51.238c0-0.55078-0.44922-1-1-1s-1 0.44922-1 1v22c0 1.5195-1.2305 2.75-2.75 2.75s-2.75-1.2305-2.75-2.75v-24.25c0-3.3125 2.6875-6 6-6zm-9.5-15c3.5898 0 6.5 2.9102 6.5 6.5s-2.9102 6.5-6.5 6.5-6.5-2.9102-6.5-6.5 2.9102-6.5 6.5-6.5z"/>
</svg>