<svg xmlns="http://www.w3.org/2000/svg" version="1.1" viewBox="0 0 100 100">
 <path d="m26.594 41.266c-1.3906-1.3906-3.2812-2.1562-5.2344-2.1406l-4.0469 0.046875c-1.9062 0.015625-3.7188 0.78125-5.0781 2.125l-5.7812 5.7812c-0.82812 0.82812-0.82812 2.1719 0 3 0.40625 0.40625 0.95312 0.625 1.5 0.625s1.0938-0.20312 1.5-0.625l5.0469-5.0469v13.406l-2.6562 10.641c-0.046875 0.17188-0.0625 0.34375-0.0625 0.51562 0 0.95312 0.64062 1.8125 1.6094 2.0625 1.1406 0.28125 2.2812-0.40625 2.5625-1.5469l2.9062-11.672 0.53125-2.1406v-0.046875h0.015625v0.03125l0.53125 2.1406 2.8594 11.453c0.28125 1.1406 1.4219 1.8125 2.5625 1.5469 0.96875-0.23438 1.6094-1.1094 1.6094-2.0625 0-0.15625-0.015625-0.34375-0.0625-0.51562l-2.6406-10.562v-13.359l5.0469 5.0469c0.40625 0.40625 0.95312 0.625 1.5 0.625s1.0781-0.20312 1.5-0.625c0.82812-0.82812 0.82812-2.1719 0-3z"/>
 <path d="m24.266 32.422c0 6.5-9.75 6.5-9.75 0s9.75-6.5 9.75 0z"/>
 <path d="m57.375 41.844c-1.3906-1.3906-3.2812-2.1562-5.2344-2.1406l-4.0469 0.046875c-1.9062 0.015625-3.7188 0.78125-5.0781 2.125l-5.7812 5.7812c-0.82812 0.82812-0.82812 2.1719 0 3 0.40625 0.40625 0.95312 0.625 1.5 0.625s1.0938-0.20312 1.5-0.625l5.0469-5.0469v13.406l-2.6562 10.641c-0.046875 0.17188-0.0625 0.34375-0.0625 0.51562 0 0.95312 0.64062 1.8125 1.6094 2.0625 1.1406 0.28125 2.2812-0.40625 2.5625-1.5469l2.9062-11.672 0.53125-2.1406-0.015625-0.046875h0.015625v0.03125l0.53125 2.1406 2.8594 11.453c0.28125 1.1406 1.4219 1.8125 2.5625 1.5469 0.96875-0.23438 1.6094-1.1094 1.6094-2.0625 0-0.15625-0.015625-0.34375-0.0625-0.51562l-2.6406-10.562v-13.359l5.0469 5.0469c0.40625 0.40625 0.95312 0.625 1.5 0.625s1.0781-0.20312 1.5-0.625c0.82812-0.82812 0.82812-2.1719 0-3z"/>
 <path d="m55.047 32.984c0 6.5-9.75 6.5-9.75 0s9.75-6.5 9.75 0z"/>
 <path d="m93.531 47.719-5.7031-5.7031c-1.3906-1.3906-3.2812-2.1562-5.2344-2.1406l-4.0469 0.046875c-1.9062 0.015625-3.7188 0.78125-5.0781 2.125l-5.7812 5.7812c-0.82812 0.82812-0.82812 2.1719 0 3 0.40625 0.40625 0.95312 0.625 1.5 0.625s1.0938-0.20312 1.5-0.625l5.0469-5.0469v13.406l-2.6562 10.641c-0.046875 0.17188-0.0625 0.34375-0.0625 0.51562 0 0.95312 0.64062 1.8125 1.6094 2.0625 1.1406 0.28125 2.2812-0.40625 2.5625-1.5469l2.9062-11.672 0.53125-2.1406-0.015625-0.046875h0.015625v0.03125l0.53125 2.1406 2.8594 11.453c0.28125 1.1406 1.4219 1.8125 2.5625 1.5469 0.96875-0.23438 1.6094-1.1094 1.6094-2.0625 0-0.15625-0.015625-0.34375-0.0625-0.51562l-2.6406-10.562v-13.359l5.0469 5.0469c0.40625 0.40625 0.95312 0.625 1.5 0.625s1.0781-0.20312 1.5-0.625c0.82812-0.82812 0.82812-2.1719 0-3z"/>
 <path d="m85.484 33.172c0 6.5-9.75 6.5-9.75 0s9.75-6.5 9.75 0z"/>
</svg>