<svg xmlns="http://www.w3.org/2000/svg" version="1.1" viewBox="0 4 93 93">
 <path d="m40.637 93.109h-0.875c-8.8516 0-16.863-1.0195-22.668-3.7227-6.6133-3.0781-10.656-8.1875-10.656-16.203 0-11.199 8.4961-21.023 20.711-25.109-5.5703-4.0469-9.1992-10.609-9.1992-18.016 0-12.277 9.9688-22.246 22.246-22.246 12.277 0 22.246 9.9688 22.246 22.246 0 7.4023-3.6211 13.961-9.1875 18.008 3.0547 1.0156 5.875 2.3867 8.3867 4.043 2.7578-1.3477 5.8594-2.1094 9.1367-2.1094 11.5 0 20.832 9.3359 20.832 20.832 0 11.5-9.3359 20.832-20.832 20.832-3.0391 0-5.9258-0.65234-8.5273-1.8242-5.707 2.3555-13.289 3.2656-21.617 3.2656zm-0.875-6.25h0.875c5.6016 0 10.832-0.38672 15.23-1.4844-3.6641-3.7578-5.9219-8.8867-5.9219-14.543 0-5.7695 2.3516-10.996 6.1484-14.77-4.4023-2.3828-9.7305-3.7617-15.457-3.7617h-0.875c-14.773 0-27.074 9.1367-27.074 20.879 0 5.2383 2.7227 8.5234 7.043 10.535 5.125 2.3867 12.219 3.1406 20.031 3.1406zm24.055-3.2109c2.0703 1.1289 4.4414 1.7695 6.9648 1.7695 8.0508 0 14.586-6.5352 14.586-14.586s-6.5352-14.582-14.586-14.582c-2.8203 0-5.457 0.80078-7.6875 2.1914-4.1367 2.5742-6.8945 7.1641-6.8945 12.391 0 5.5273 3.082 10.34 7.6172 12.816zm0.64062-10.605c-1.2188-1.2188-1.2188-3.1992 0-4.418s3.1992-1.2188 4.418 0l1.957 1.957 5.3438-5.3438c1.2188-1.2188 3.1992-1.2188 4.4219 0 1.2188 1.2188 1.2188 3.1992 0 4.4219l-7.5547 7.5547c-1.2188 1.2227-3.1992 1.2227-4.418 0l-4.168-4.168zm-24.176-26.988c8.793-0.042969 15.918-7.1953 15.918-16 0-8.8281-7.168-15.996-16-15.996-8.8281 0-15.996 7.168-15.996 15.996 0 8.8008 7.125 15.957 15.918 16z" fill-rule="evenodd"/>
</svg>