<svg xmlns="http://www.w3.org/2000/svg" version="1.1" viewBox="0 0 100 100">
 <path d="m90.602 8.8008h-68.902c-3.8008 0-6.8984 3.1016-6.8984 6.8984v4.6992h-5.4023c-3.8008 0-6.8984 3.1016-6.8984 6.8984v56.898c0 3.8008 3.1016 6.8984 6.8984 6.8984h68.898c3.8008 0 6.8984-3.1016 6.8984-6.8984v-4.6992h5.3984c3.8008 0 6.8984-3.1016 6.8984-6.8984l0.007812-56.898c0-3.8008-3.1016-6.8984-6.8984-6.8984zm-11.402 64.699v10.699c0 0.5-0.39844 0.89844-0.89844 0.89844l-68.902 0.003906c-0.5 0-0.89844-0.39844-0.89844-0.89844v-56.805c0-0.5 0.39844-0.89844 0.89844-0.89844h68.898c0.5 0 0.89844 0.39844 0.89844 0.89844zm12.301-0.89844c0 0.5-0.39844 0.89844-0.89844 0.89844h-5.3984l-0.003906-46.102c0-3.8008-3.1016-6.8984-6.8984-6.8984h-57.5v-4.6992c0-0.5 0.39844-0.89844 0.89844-0.89844h68.898c0.5 0 0.89844 0.39844 0.89844 0.89844z"/>
 <path d="m43.898 65.801-11.699-10-18.301 17.898v6.1016h59.902v-22.199l-10.902-13.402z"/>
 <path d="m25.301 49.5c4.6016 0 8.3984-3.8008 8.3984-8.3984 0-4.6016-3.8008-8.3984-8.3984-8.3984-4.6016 0-8.3984 3.8008-8.3984 8.3984-0.003906 4.5977 3.7969 8.3984 8.3984 8.3984z"/>
</svg>