<svg xmlns="http://www.w3.org/2000/svg" viewBox="0 0 100 100">
  <path fill="currentColor" d="M50,77.13l-1.79-2.35C47.34,73.64,27,46.67,27,27.93a23,23,0,0,1,46.08,0c0,18.74-20.38,45.71-21.25,46.85ZM50,9.5A18.51,18.51,0,0,0,31.46,27.93C31.46,42.07,45,62.57,50,69.59c5-7,18.54-27.52,18.54-41.66A18.51,18.51,0,0,0,50,9.5Z"/>
  <path fill="currentColor" d="M50,40.37A12.44,12.44,0,1,1,62.44,27.93,12.45,12.45,0,0,1,50,40.37ZM50,20a7.94,7.94,0,1,0,7.94,7.94A8,8,0,0,0,50,20Z"/>
  <path fill="currentColor" d="M50,95C28.19,95,5,89,5,77.77,5,71.44,12.83,66.06,26.48,63l.95-.21L41.2,74.15,38,75.35c-2.68,1-3.55,2.06-3.55,2.42C34.4,79,39.87,82,50,82s15.6-3,15.6-4.24c0-.36-.87-1.42-3.55-2.42l-3.25-1.2L72.57,62.77l1,.21C87.17,66.06,95,71.44,95,77.77,95,89,71.81,95,50,95ZM26.4,67.1C15.8,69.64,9,73.79,9,77.77,9,84,25.84,91,50,91s41-7,41-13.23c0-4-6.8-8.13-17.4-10.67L66.42,73c2.56,1.61,3.18,3.39,3.18,4.74C69.6,83.18,59.74,86,50,86s-19.6-2.83-19.6-8.24c0-1.35.62-3.13,3.18-4.74Z"/>
</svg>