<svg xmlns="http://www.w3.org/2000/svg" viewBox="-5.0 -10.0 110.0 135.0">
 <g fill="currentColor">
  <path d="m23.168 10.066c17.996 0.019532 35.988 0.019532 53.984 0 2.0664-0.03125 3.75-1.6758 3.8281-3.7461 0.074219-1.6367-0.73438-3.1875-2.1172-4.0703-0.83594-0.63281-1.8516-0.97266-2.8984-0.97266-17.203 0.015625-34.41-0.015625-51.617 0.011718-0.47266-0.011718-0.94922 0.019532-1.4141 0.097657-1.1094 0.23438-2.1055 0.83203-2.8359 1.6953-1.0977 1.2578-1.3984 3.0234-0.77734 4.5703 0.57422 1.5977 2.1602 2.5938 3.8477 2.4141z"/>
  <path d="m33.035 69.656c1.8828-2.8867 4.3203-5.3672 7.1719-7.2969 1.2773-0.91406 2.6953-1.6172 3.9297-2.5977 2.8125-2.4219 4.3359-6.0117 4.125-9.7148-0.10156-2.75-1.2031-5.3711-3.0977-7.3711-1.0664-0.93359-2.2461-1.7305-3.5117-2.375-2.8906-1.6484-5.4258-3.8555-7.4609-6.4883-2.0859-2.5742-3.5469-5.5938-4.2656-8.8281-0.95703-3.6797-0.63672-7.5-0.69141-11.258-0.046875-0.046874-0.14062-0.14453-0.1875-0.19141-1.4023-0.023437-2.8008-0.007812-4.2031-0.015625v0.003907c-0.33984-0.015626-0.67969 0.058593-0.98438 0.21484-0.14453 0.25-0.21094 0.53516-0.19922 0.82031-0.16797 3.5195 0.039063 7.0469 0.61719 10.52 1.1016 5.4023 3.6484 10.402 7.3672 14.469 2.2227 2.3242 4.7891 4.293 7.6094 5.8398 1.1562 0.58594 2.1602 1.4258 2.9453 2.457 0.83203 1.1055 1.1602 2.5117 0.90234 3.8711-0.45312 1.8008-1.5977 3.3516-3.1875 4.3203-1.2344 0.78516-2.5078 1.5195-3.7188 2.3477-1.5625 1.0977-3.0156 2.3438-4.332 3.7266-1.6172 1.6211-3.0039 3.457-4.1328 5.4492-1.8008 3.043-3.0352 6.3867-3.6445 9.8711-0.39063 2.8008-0.52344 5.625-0.40234 8.4492-0.007813 0.17578 0.058594 0.34375 0.18359 0.46484s0.29687 0.17969 0.46875 0.16406c1.4102 0.011719 2.8164 0.007813 4.2266 0.019532 0.23438 0.007812 0.46094-0.039063 0.67188-0.13672v-3.2188c-0.070313-3.2656 0.50391-6.5117 1.6836-9.5586 0.59375-1.375 1.3008-2.6992 2.1172-3.957z"/>
  <path d="m60.309 45.469c2.6289-1.4805 5.0703-3.2773 7.2617-5.3555 2.5078-2.5508 4.5352-5.5352 5.9844-8.8047 1.2812-2.9141 2.125-6.0039 2.5-9.168 0.17578-2.1328 0.23047-4.2734 0.16797-6.4102 0.027344-0.55859 0.003906-1.1133-0.070312-1.668-0.10547-0.35938-0.46094-0.58984-0.83203-0.53906-1.5117 0.039062-3.0312-0.039063-4.5352 0.046874-0.25781 0.10547-0.19531 0.42578-0.20703 0.64453 0.1875 3.3984 0 6.8125-0.55469 10.172-0.625 3.0469-1.8672 5.9375-3.6562 8.4844-1.8828 2.6289-4.2422 4.875-6.957 6.6289-2.0703 1.3594-4.4922 2.4219-5.8828 4.5742v0.003906c-3.1562 4.9844-2.3438 11.504 1.9336 15.562 1 0.82422 2.0664 1.5586 3.1914 2.1992 1.6523 0.98438 3.1875 2.1523 4.582 3.4766 4.3125 4.1289 6.9336 9.7148 7.3555 15.672 0.039062 1.6836 0.007812 3.3711 0.023437 5.0547-0.015625 0.19531 0.10156 0.46484 0.33594 0.45703 1.4531 0.046875 2.9102 0.011719 4.3672 0.046875v-0.003906c0.23828 0.03125 0.48047-0.046875 0.65625-0.21484 0.17578-0.16797 0.26562-0.40234 0.25-0.64453 0.0625-2.3008-0.027344-4.6016-0.26953-6.8906-1.1523-9.1367-6.5234-17.207-14.508-21.797-1.3477-0.71875-2.5547-1.6758-3.5586-2.8281-0.97266-1.207-1.3711-2.7773-1.0977-4.3047 0.50781-1.8906 1.7812-3.4844 3.5195-4.3945z"/>
  <path d="m52.746 39.566c0.87891-0.66016 1.832-1.2188 2.8359-1.6719 2.4805-1.2578 4.7109-2.9648 6.5781-5.0273 1.9609-2.0898 3.4258-4.5898 4.2852-7.3242 0.75781-2.5742 1.0586-5.2617 0.88281-7.9414-0.035156-0.35156-0.50781-0.33594-0.76953-0.35547v-0.003906c-2.2109-0.03125-4.3945 0.51172-6.332 1.5703-3.4883 1.8633-5.9922 5.0352-9.2266 7.2539-2.168 1.6719-4.7461 2.7227-7.4648 3.043-2.8125 0.33203-5.6523-0.30078-8.0586-1.793-0.35156-0.24219-0.73047-0.44531-1.1289-0.60547-0.12109 0.035156-0.21875 0.125-0.26172 0.24609-0.042969 0.12109-0.027344 0.25391 0.042968 0.35938 1.2188 3.0234 3.1953 5.6836 5.7422 7.7188 1.9102 1.5391 4.0039 2.832 6.2305 3.8594 1.1758 0.55078 2.1367 1.4766 2.7305 2.6289 0.44141 1.0742 0.80078 2.1758 1.0742 3.3008 0.27734-0.56641 0.47656-1.168 0.59375-1.7852 0.39453-1.3516 1.1758-2.5586 2.2461-3.4727z"/>
  <path d="m51.539 60.656c-0.375-1.1484-0.82812-2.2734-1.3477-3.3633-0.12109-0.058594-0.23828-0.11328-0.35547-0.16797-0.64453 1.5508-1.8398 3.0742-1.5273 4.8438 0.085937 0.52344 0.41016 0.97656 0.875 1.2266 0.46875 0.25391 1.0234 0.27734 1.5078 0.070313 0.85547-0.56641 1.207-1.6484 0.84766-2.6094z"/>
  <path d="m49.309 65.914c-0.46094 0.20313-0.78125 0.63672-0.83984 1.1367-0.054688 0.48047 0.11719 0.95703 0.45703 1.2969 0.34375 0.33594 0.82422 0.5 1.3047 0.44141 0.39844-0.0625 0.75391-0.28516 0.98828-0.61719 0.23047-0.33203 0.31641-0.74609 0.23438-1.1406-0.10547-0.45312-0.40625-0.83594-0.81641-1.0508-0.41016-0.21484-0.89453-0.23828-1.3281-0.066407z"/>
  <path d="m32.922 86.512c11.215 0.011719 22.434-0.007813 33.648 0.003906 0.30078 0 0.80078-0.0625 0.78125-0.46094 0-0.94141-0.21484-1.8672-0.625-2.7109-1.2109-2.1992-3.0156-4.0156-5.2109-5.2383-2.625-1.7344-5.1758-3.5859-7.8359-5.2695-1.3516-0.98828-3.0352-1.4102-4.6914-1.168-0.98047 0.18359-1.9141 0.5625-2.7461 1.1133-2.9492 1.8398-5.7812 3.8594-8.6875 5.7617v-0.003907c-1.3125 0.85547-2.4883 1.9023-3.4922 3.1055-0.96875 1.2695-1.5312 2.8047-1.6172 4.3984-0.015624 0.12891 0.03125 0.26172 0.125 0.35156 0.09375 0.089844 0.22266 0.13672 0.35156 0.11719z"/>
  <path d="m79.27 90.648c-0.91406-0.58984-2.0078-0.82813-3.082-0.67969-0.46094 0.015625-0.92578 0.019531-1.3867 0.023438-16.871-0.015626-33.742-0.015626-50.613-0.003907-0.73438-0.042969-1.4688-0.011719-2.1953 0.089844-1.6445 0.41797-2.8398 1.8359-2.9766 3.5273-0.058594 1.3555 0.44531 2.6719 1.3906 3.6367 0.94922 0.96875 2.2539 1.5 3.6055 1.4727 17.383 0.023437 34.762 0.023437 52.141-0.003906h0.003906c2.6836-0.070313 4.8281-2.2578 4.8477-4.9414-0.070312-1.25-0.71094-2.4023-1.7344-3.1211z"/>
 </g>
</svg>