<svg xmlns="http://www.w3.org/2000/svg" version="1.1" viewBox="0 0 100 100">
 <g>
  <path d="m62.5 34.723h-20.832c-2.2969 0-4.168 1.8672-4.168 4.168v1.3906h-1.3906c-2.2969 0-4.168 1.8672-4.168 4.168v16.668c0 2.2969 1.8672 4.168 4.168 4.168h26.391c2.2969 0 4.1641-1.8711 4.1641-4.168v-22.223c0-2.2969-1.8672-4.168-4.168-4.168zm-26.391 27.777c-0.76562 0-1.3906-0.625-1.3906-1.3906v-16.668c0-0.76562 0.62109-1.3906 1.3906-1.3906h20.832c0.76562 0 1.3906 0.625 1.3906 1.3906v16.668c0 0.48828 0.085938 0.95312 0.23828 1.3906zm27.781-1.3906c0 0.76562-0.62109 1.3906-1.3906 1.3906-0.76562 0-1.3906-0.625-1.3906-1.3906v-16.668c0-2.2969-1.8672-4.168-4.168-4.168h-16.668v-1.3906c0-0.76562 0.62109-1.3906 1.3906-1.3906h20.832c0.76562 0 1.3906 0.625 1.3906 1.3906v22.223z"/>
  <path d="m54.168 47.223h-9.7227c-0.76953 0-1.3906 0.62109-1.3906 1.3906 0 0.76562 0.62109 1.3906 1.3906 1.3906h9.7227c0.76953 0 1.3906-0.62109 1.3906-1.3906 0-0.76562-0.62109-1.3906-1.3906-1.3906z"/>
  <path d="m54.168 51.391h-15.277c-0.76953 0-1.3906 0.62109-1.3906 1.3906 0 0.76562 0.62109 1.3906 1.3906 1.3906h15.277c0.76953 0 1.3906-0.62109 1.3906-1.3906 0-0.76562-0.62109-1.3906-1.3906-1.3906z"/>
  <path d="m54.168 55.555h-15.277c-0.76953 0-1.3906 0.62109-1.3906 1.3906 0 0.76563 0.62109 1.3906 1.3906 1.3906h15.277c0.76953 0 1.3906-0.62109 1.3906-1.3906 0-0.76562-0.62109-1.3906-1.3906-1.3906z"/>
  <path d="m88.891 81.945c-1.4141 0-2.7266 0.42969-3.8242 1.1562l-13.516-13.516c1.9727-2.168 3.6211-4.6289 4.875-7.3164l5.5938 2.2734c-0.03125 0.24219-0.074219 0.48438-0.074219 0.73438 0 3.0625 2.4922 5.5547 5.5547 5.5547s5.5547-2.4922 5.5547-5.5547-2.4922-5.5547-5.5547-5.5547c-1.8203 0-3.4219 0.89062-4.4375 2.2461l-5.5898-2.2695c1.0781-3.0391 1.6914-6.2969 1.6914-9.6992 0-4.0508-0.83203-7.9062-2.332-11.414l9.2227-4.457c1.0195 1.2031 2.5234 1.9805 4.2188 1.9805 3.0625 0 5.5547-2.4922 5.5547-5.5547s-2.4922-5.5547-5.5547-5.5547-5.5547 2.4922-5.5547 5.5547c0 0.37109 0.039062 0.73047 0.10938 1.082l-9.207 4.4453c-1.9648-3.6055-4.6875-6.7305-7.9258-9.2148l4.5703-6.6016c0.83984 0.35938 1.7617 0.5625 2.7305 0.5625 3.8281 0 6.9453-3.1172 6.9453-6.9453 0-3.8281-3.1172-6.9453-6.9453-6.9453s-6.9453 3.1172-6.9453 6.9453c0 1.8594 0.74219 3.5391 1.9375 4.7891l-4.5742 6.6094c-4.4805-2.8047-9.7539-4.4531-15.418-4.4531-7.543 0-14.402 2.9023-19.586 7.6172l-11.129-11.129c0.97266-1.3633 1.5469-3.0234 1.5469-4.8203 0-4.5938-3.7383-8.332-8.332-8.332s-8.332 3.7383-8.332 8.332 3.7383 8.332 8.332 8.332c1.7969 0 3.457-0.57812 4.8203-1.5469l11.129 11.129c-4.7148 5.1836-7.6172 12.043-7.6172 19.586 0 6.707 2.2969 12.871 6.1172 17.805l-9.0977 7.7617c-1.4492-1.2188-3.3164-1.9531-5.3516-1.9531-4.5938 0-8.332 3.7383-8.332 8.332s3.7383 8.332 8.332 8.332 8.332-3.7383 8.332-8.332c0-1.5586-0.4375-3.0117-1.1836-4.2578l9.1055-7.7656c5.3242 5.6758 12.867 9.25 21.246 9.25 7.543 0 14.402-2.9023 19.586-7.6172l13.516 13.516c-0.72656 1.0977-1.1562 2.4102-1.1562 3.8242 0 3.8281 3.1172 6.9453 6.9453 6.9453s6.9453-3.1172 6.9453-6.9453-3.1172-6.9453-6.9453-6.9453zm-1.3906-19.445c1.5312 0 2.7773 1.2461 2.7773 2.7773s-1.2461 2.7773-2.7773 2.7773-2.7773-1.2461-2.7773-2.7773c0-0.35547 0.074219-0.69531 0.19531-1.0117 0.003906-0.011719 0.015625-0.023437 0.019531-0.035156 0.007812-0.015625 0.003906-0.035157 0.007812-0.050781 0.42578-0.98828 1.4102-1.6797 2.5508-1.6797zm2.7773-34.723c1.5312 0 2.7773 1.2461 2.7773 2.7773s-1.2461 2.7773-2.7773 2.7773-2.7773-1.2461-2.7773-2.7773 1.2461-2.7773 2.7773-2.7773zm-15.277-18.055c2.2969 0 4.168 1.8672 4.168 4.168 0 2.2969-1.8672 4.168-4.168 4.168-2.2969 0-4.168-1.8672-4.168-4.168 0-2.2969 1.8672-4.168 4.168-4.168zm-62.5 77.777c-3.0625 0-5.5547-2.4922-5.5547-5.5547s2.4922-5.5547 5.5547-5.5547 5.5547 2.4922 5.5547 5.5547-2.4922 5.5547-5.5547 5.5547zm-5.5547-75c0-3.0625 2.4922-5.5547 5.5547-5.5547s5.5547 2.4922 5.5547 5.5547-2.4922 5.5547-5.5547 5.5547-5.5547-2.4922-5.5547-5.5547zm16.664 37.5c0-14.551 11.84-26.391 26.391-26.391s26.391 11.84 26.391 26.391-11.84 26.391-26.391 26.391-26.391-11.84-26.391-26.391zm65.281 43.055c-2.2969 0-4.168-1.8672-4.168-4.168 0-2.2969 1.8672-4.168 4.168-4.168 2.2969 0 4.168 1.8672 4.168 4.168 0 2.2969-1.8672 4.168-4.168 4.168z"/>
 </g>
</svg>