<svg xmlns="http://www.w3.org/2000/svg" version="1.1" viewBox="14.00 13.99 72.01 72.01">
 <path d="m16.664 60.414v20.832c0 1.1523 0.93359 2.082 2.082 2.082h14.59c1.1289-0.011719 2.0469-0.92578 2.0586-2.0586v-20.848c0.003907-1.1445-0.91406-2.0781-2.0586-2.0898h-14.586c-1.1523 0-2.082 0.93359-2.082 2.082z"/>
 <path d="m66.691 16.664c-1.1562-0.003906-2.0977 0.93359-2.0898 2.0898v62.516c0.011719 1.1445 0.94531 2.0625 2.0898 2.0586h14.559c1.1523 0 2.082-0.93359 2.082-2.082v-62.5c0-1.1484-0.93359-2.082-2.082-2.082z"/>
 <path d="m39.59 39.582v41.668c0 1.1523 0.93359 2.082 2.082 2.082h16.652c1.1523 0 2.082-0.93359 2.082-2.082v-41.668c0-1.1523-0.93359-2.082-2.082-2.082h-16.652c-1.1523 0-2.082 0.93359-2.082 2.082z"/>
</svg>